<?xml version="1.0" encoding="UTF-8" standalone="no"?>
<!-- Created with Inkscape (http://www.inkscape.org/) -->

<svg
   xmlns:dc="http://purl.org/dc/elements/1.1/"
   xmlns:cc="http://creativecommons.org/ns#"
   xmlns:rdf="http://www.w3.org/1999/02/22-rdf-syntax-ns#"
   xmlns:svg="http://www.w3.org/2000/svg"
   xmlns="http://www.w3.org/2000/svg"
   xmlns:sodipodi="http://sodipodi.sourceforge.net/DTD/sodipodi-0.dtd"
   xmlns:inkscape="http://www.inkscape.org/namespaces/inkscape"
   width="640"
   height="640"
   id="svg2"
   version="1.1"
   inkscape:version="0.48.1 r9760"
   sodipodi:docname="新建文档 1">
  <defs
     id="defs4" />
  <sodipodi:namedview
     id="base"
     pagecolor="#ffffff"
     bordercolor="#666666"
     borderopacity="1.0"
     inkscape:pageopacity="0.0"
     inkscape:pageshadow="2"
     inkscape:zoom="0.68115385"
     inkscape:cx="110.55156"
     inkscape:cy="306.6416"
     inkscape:document-units="px"
     inkscape:current-layer="layer1"
     showgrid="false"
     width="800px"
     inkscape:window-width="1024"
     inkscape:window-height="714"
     inkscape:window-x="0"
     inkscape:window-y="26"
     inkscape:window-maximized="1" />
  <metadata
     id="metadata7">
    <rdf:RDF>
      <cc:Work
         rdf:about="">
        <dc:format>image/svg+xml</dc:format>
        <dc:type
           rdf:resource="http://purl.org/dc/dcmitype/StillImage" />
        <dc:title></dc:title>
      </cc:Work>
    </rdf:RDF>
  </metadata>
  <g
     inkscape:label="Layer 1"
     inkscape:groupmode="layer"
     id="layer1"
     transform="translate(0,-412.3623)">
    <g
       style="font-size:384px;font-style:normal;font-variant:normal;font-weight:normal;font-stretch:normal;line-height:125%;letter-spacing:0px;word-spacing:0px;fill:#000000;fill-opacity:1;stroke:none;font-family:'黑体';-inkscape-font-specification:'黑体'"
       id="text2985"
       transform="translate(-2,-38)" />
    <g
       style="font-size:144px;font-style:normal;font-variant:normal;font-weight:normal;font-stretch:normal;line-height:125%;letter-spacing:0px;word-spacing:0px;fill:#000000;fill-opacity:1;stroke:none;font-family:'迷你简秀英';-inkscape-font-specification:'迷你简秀英'"
       id="text2989"
       transform="translate(-18.404291,-36.659514)">
      <path
         id="path2994"
         style="font-size:512px;font-family:'迷你简秀英';-inkscape-font-specification:'迷你简秀英'"
         d="m 350.08397,780.96751 c 2.79355,0.20956 19.72674,0.51719 38.94728,-1.55804 44.74168,-4.83073 55.65054,-9.76552 60.87926,-11.79889 8.99969,-3.49983 23.56882,-7.04418 38.56917,-22.37761 15.16628,-15.49988 21.99961,-41.24985 20.5,-77.25 -0.83372,-17.66646 -4.25039,-32.74978 -10.25,-45.25 -6.00037,-12.66642 -13.5837,-24.99975 -22.75,-37 -9.00035,-11.99972 -20.25034,-22.83304 -33.75,-32.5 -13.33364,-9.66636 -30.25029,-17.91635 -50.75,-24.75 -20.33359,-6.833 -40.9169,-9.66633 -61.75,-8.5 -10.33353,0.667 -20.75019,2.417 -31.25,5.25 -10.3335,2.83366 -21.58349,7.08365 -33.75,12.75 -12.1668,5.50031 -24.00012,13.2503 -35.5,23.25 -11.5001,9.83361 -20.75009,19.5836 -27.75,29.25 -6.83341,9.50025 -12.91674,19.41691 -18.25,29.75 -5.16673,10.16689 -9.25006,21.16688 -12.25,33 -2.83338,11.83352 -4.50005,25.75017 -5,41.75 -0.33338,15.83347 0.83329,29.83346 3.5,42 2.83328,14.16677 7.99994,28.58342 15.5,43.25 7.66659,14.50006 17.33325,28.25004 29,41.25 11.83323,13.00002 28.66654,24.75001 50.5,35.25 21.83317,10.49999 46.99981,15.83331 75.5,16 22.49976,0.33331 43.1664,-3.00002 62,-10 18.9997,-7 35.66635,-16.08333 50,-27.25 14.49965,-11.16664 25.41631,-20.3333 32.75,-27.5 l 12.75,-12.25 18,16 c -5.00039,6.00003 -10.25039,12.08336 -15.75,18.25 -5.33371,6.00002 -13.75037,13.91668 -25.25,23.75 -11.50034,9.99999 -25.58366,18.99998 -42.25,27 -16.5003,7.99996 -32.75028,13.66662 -48.75,17 -15.83358,3.49995 -30.9169,5.24995 -45.25,5.25 -26.33353,0.16662 -53.25017,-5.41671 -80.75,-16.75 -27.33344,-11.16669 -50.16676,-28.00001 -68.5,-50.5 -18.33339,-22.49996 -31.25004,-44.41661 -38.75,-65.75 -7.50002,-21.4999 -11.58335,-41.66654 -12.25,-60.5 -0.50002,-18.83317 1.33331,-37.74982 5.5,-56.75 3.16664,-14.49979 7.66663,-28.16644 13.5,-41 5.99996,-12.83308 12.99995,-24.58307 21,-35.25 8.1666,-10.66638 16.99992,-20.58304 26.5,-29.75 9.66657,-9.16635 22.49989,-18.41634 38.5,-27.75 15.99986,-9.33299 31.91651,-15.74965 47.75,-19.25 15.99981,-3.66631 30.33313,-5.83297 43,-6.5 12.33311,-0.49964 23.91643,3.6e-4 34.75,1.5 10.99974,1.33369 22.74973,3.91702 35.25,7.75 12.66637,3.83368 24.24969,8.75034 34.75,14.75 10.49967,5.83366 20.99966,13.08366 31.5,21.75 10.49964,8.66697 19.83296,17.66696 28,27 8.16628,9.33361 15.49961,20.75027 22,34.25 6.49959,13.50024 11.08292,26.08356 13.75,37.75 2.66625,11.66687 4.08291,24.00019 4.25,37 0.33291,12.8335 -1.50042,26.66682 -5.5,41.5 -4.83374,17.00012 -10.83374,30.33344 -18,40 -7.00039,9.66675 -15.00038,18.58341 -24,26.75 -9.00036,8.00006 -20.91881,8.64361 -32.08512,15.14356 -6.2109,4.10411 -30.32633,11.69665 -59.78115,15.35596 -21.07115,2.61777 -40.5475,3.72953 -47.64842,3.32668 m 59.83496,-193.20996 c -1.6e-4,13.00019 -3.00016,25.00017 -9,36 -6.00015,11.00015 -14.00014,20.50014 -24,28.5 -10.00012,8.00013 -17.00011,16.00012 -21,24 -4.00011,8.0001 -6.0001,13.5001 -6,16.5 l 0,10.5 -27,0 0,-15 c -8e-5,-8.99989 1.99992,-17.49988 6,-25.5 4.99991,-8.99987 12.9999,-18.49986 24,-28.5 7.99989,-6.99984 13.49988,-13.99983 16.5,-21 2.99987,-7.99982 4.49987,-15.49981 4.5,-22.5 -1.3e-4,-12.99979 -3.00012,-22.49978 -9,-28.5 -6.00011,-6.99977 -14.5001,-10.49976 -25.5,-10.5 -11.00008,2.4e-4 -20.50007,4.50023 -28.5,13.5 -7.00006,8.00021 -10.50005,21.5002 -10.5,40.5 l -34.5,0 c 0.99998,-27.99979 8.49997,-48.49977 22.5,-61.5 13.99994,-13.99974 30.99993,-20.99974 51,-21 21.99989,2.6e-4 38.99987,6.00026 51,18 12.99984,12.00023 19.49984,27.50022 19.5,46.5 m -57,193 -33,0 0,-36 33,0 0,36"
         inkscape:connector-curvature="0" />
    </g>
    <g
       style="font-size:72px;font-style:normal;font-variant:normal;font-weight:normal;font-stretch:normal;line-height:125%;letter-spacing:0px;word-spacing:0px;fill:#000000;fill-opacity:1;stroke:none;font-family:'迷你简秀英';-inkscape-font-specification:'迷你简秀英'"
       id="text3000">
      <path
         d="m 55.707653,926.14886 -5.5,43.25 -5,0 -4.5,-32 -0.5,0 -4.5,32 -5,0 -5.5,-43.25 5.5,0 2.75,27.25 0.5,0 3.75,-27.25 5.5,0 3.75,27.25 0.5,0 2.75,-27.25 5.5,0"
         style="font-size:64px;font-family:'黑体';-inkscape-font-specification:'黑体'"
         id="path3005" />
      <path
         d="m 84.957653,968.89886 -5,0 0,-18 c -2.3e-5,-1.99997 -0.500022,-3.58331 -1.5,-4.75 -1.00002,-1.16664 -2.333352,-1.74997 -4,-1.75 -2.166682,3e-5 -4.250013,1.1667 -6.25,3.5 -1.833343,2.16669 -2.750008,4.91669 -2.75,8.25 l 0,12.75 -5,0 0,-42.75 5,0 0,20 c 1.333324,-1.8333 2.749989,-3.24997 4.25,-4.25 1.666652,-0.99997 3.749984,-1.49997 6.25,-1.5 2.999978,3e-5 5.249976,0.83337 6.75,2.5 1.499973,1.6667 2.249972,3.75003 2.25,6.25 l 0,19.75"
         style="font-size:64px;font-family:'黑体';-inkscape-font-specification:'黑体'"
         id="path3007" />
      <path
         d="m 117.45765,959.39886 c -0.33336,3.00001 -1.66669,5.41668 -4,7.25 -2.33335,1.83334 -5.08335,2.75001 -8.25,2.75 -4.00001,10e-6 -7.333339,-1.24999 -9.999997,-3.75 -2.500004,-2.66665 -3.750002,-6.24998 -3.75,-10.75 -2e-6,-4.49998 1.249996,-7.99997 3.75,-10.5 2.666658,-2.66663 5.999987,-3.99997 9.999997,-4 3.49998,3e-5 6.33331,1.1667 8.5,3.5 2.33331,2.1667 3.49997,5.83336 3.5,11 l -20.249997,0 c -8e-6,3.66668 0.749991,6.25001 2.25,7.75 1.666657,1.50001 3.666657,2.25001 5.999997,2.25 1.83332,10e-6 3.33332,-0.41666 4.5,-1.25 1.16665,-0.99999 1.91665,-2.41665 2.25,-4.25 l 5.5,0 m -6,-8.5 c -0.33335,-2.33331 -1.08335,-3.91664 -2.25,-4.75 -1.16668,-0.99997 -2.66668,-1.49997 -4.5,-1.5 -1.66668,3e-5 -3.16668,0.50003 -4.5,1.5 -1.33334,0.83336 -2.333339,2.41669 -2.999997,4.75 l 14.249997,0"
         style="font-size:64px;font-family:'黑体';-inkscape-font-specification:'黑体'"
         id="path3009" />
      <path
         d="m 145.95765,945.89886 c -3.16669,-0.49997 -5.83335,3e-5 -8,1.5 -2.16668,1.33336 -4.00001,3.75002 -5.5,7.25 l 0,14.25 -5,0 0,-28 5,0 0,7.25 c 1.49999,-2.66664 3.33332,-4.5833 5.5,-5.75 2.33332,-1.3333 4.99998,-1.99997 8,-2 l 0,5.5"
         style="font-size:64px;font-family:'黑体';-inkscape-font-specification:'黑体'"
         id="path3011" />
      <path
         d="m 181.45765,959.39886 c -0.33336,3.00001 -1.66669,5.41668 -4,7.25 -2.33335,1.83334 -5.08335,2.75001 -8.25,2.75 -4.00001,10e-6 -7.33334,-1.24999 -10,-3.75 -2.5,-2.66665 -3.75,-6.24998 -3.75,-10.75 0,-4.49998 1.25,-7.99997 3.75,-10.5 2.66666,-2.66663 5.99999,-3.99997 10,-4 3.49998,3e-5 6.33331,1.1667 8.5,3.5 2.33331,2.1667 3.49997,5.83336 3.5,11 l -20.25,0 c 0,3.66668 0.74999,6.25001 2.25,7.75 1.66666,1.50001 3.66666,2.25001 6,2.25 1.83332,10e-6 3.33332,-0.41666 4.5,-1.25 1.16665,-0.99999 1.91665,-2.41665 2.25,-4.25 l 5.5,0 m -6,-8.5 c -0.33335,-2.33331 -1.08335,-3.91664 -2.25,-4.75 -1.16668,-0.99997 -2.66668,-1.49997 -4.5,-1.5 -1.66668,3e-5 -3.16668,0.50003 -4.5,1.5 -1.33334,0.83336 -2.33334,2.41669 -3,4.75 l 14.25,0"
         style="font-size:64px;font-family:'黑体';-inkscape-font-specification:'黑体'"
         id="path3013" />
      <path
         d="m 201.95765,925.64886 c -0.50001,2.16671 -0.83335,4.33338 -1,6.5 l -0.5,6.5 -3.75,0 -0.25,-8 c -0.16667,-1.66662 -0.33334,-3.33329 -0.5,-5 l 6,0"
         style="font-size:64px;font-family:'黑体';-inkscape-font-specification:'黑体'"
         id="path3015" />
      <path
         d="m 244.45765,961.14886 c -2e-5,2.66668 -1.08336,4.75001 -3.25,6.25 -2.00002,1.33334 -4.58335,2.00001 -7.75,2 -4.00001,10e-6 -7.08334,-0.74999 -9.25,-2.25 -2.16667,-1.66666 -3.25,-3.99999 -3.25,-7 l 5,0 c -1e-5,2.00001 0.66666,3.33334 2,4 1.49999,0.66668 3.24999,1.00001 5.25,1 1.99998,10e-6 3.49998,-0.33332 4.5,-1 0.99998,-0.83332 1.49998,-1.83332 1.5,-3 -2e-5,-0.83332 -0.41669,-1.66665 -1.25,-2.5 -0.83335,-0.83332 -2.91668,-1.49998 -6.25,-2 -3.83334,-0.49998 -6.50001,-1.41665 -8,-2.75 -1.33334,-1.49998 -2,-3.41664 -2,-5.75 0,-1.99997 0.91666,-3.74997 2.75,-5.25 1.99999,-1.66663 4.83332,-2.49997 8.5,-2.5 3.33332,3e-5 5.91665,0.75003 7.75,2.25 1.99998,1.50003 2.99998,3.50003 3,6 l -5,0 c -2e-5,-1.49997 -0.58335,-2.49997 -1.75,-3 -1.00002,-0.66664 -2.33335,-0.99997 -4,-1 -2.16668,3e-5 -3.75001,0.4167 -4.75,1.25 -0.83334,0.66669 -1.25001,1.50003 -1.25,2.5 -1e-5,1.16669 0.41666,2.08336 1.25,2.75 0.83332,0.66669 2.58332,1.16669 5.25,1.5 4.33332,0.66669 7.24998,1.75002 8.75,3.25 1.49998,1.33335 2.24998,3.08335 2.25,5.25"
         style="font-size:64px;font-family:'黑体';-inkscape-font-specification:'黑体'"
         id="path3017" />
      <path
         d="m 311.45765,968.89886 -5,0 0,-20.25 c -2e-5,-0.99997 -0.16669,-1.83331 -0.5,-2.5 -0.33335,-0.66664 -1.00002,-0.99997 -2,-1 -1.16669,3e-5 -2.25002,0.6667 -3.25,2 -1.00002,1.16669 -1.50002,2.75002 -1.5,4.75 l 0,17 -5,0 0,-20.25 c -10e-6,-0.99997 -0.16668,-1.83331 -0.5,-2.5 -0.33334,-0.66664 -1.00001,-0.99997 -2,-1 -1.16667,3e-5 -2.25001,0.6667 -3.25,2 -1,1.16669 -1.5,2.75002 -1.5,4.75 l 0,17 -5,0 0,-28 5,0 0,3.75 c 0.83333,-1.3333 1.83333,-2.3333 3,-3 1.16666,-0.8333 2.41666,-1.24997 3.75,-1.25 1.33332,3e-5 2.41665,0.4167 3.25,1.25 0.99999,0.6667 1.66665,1.6667 2,3 0.83332,-1.3333 1.74998,-2.3333 2.75,-3 1.16665,-0.8333 2.41665,-1.24997 3.75,-1.25 1.99998,3e-5 3.49998,0.58337 4.5,1.75 0.99997,1.00003 1.49997,2.50003 1.5,4.5 l 0,22.25"
         style="font-size:64px;font-family:'黑体';-inkscape-font-specification:'黑体'"
         id="path3019" />
      <path
         d="m 341.95765,940.89886 -11.5,30.25 c -0.66668,2.33333 -1.66668,4.08333 -3,5.25 -1.33334,1.16666 -3.00001,1.75 -5,1.75 -0.83334,0 -1.66667,-0.0833 -2.5,-0.25 -0.66667,0 -1.33334,-0.16667 -2,-0.5 l 0,-5 c 0.66666,0.33334 1.33333,0.58334 2,0.75 0.66666,0.16667 1.24999,0.25 1.75,0.25 1.33333,0 2.24999,-0.25 2.75,-0.75 0.49999,-0.33333 0.99999,-1.25 1.5,-2.75 l -11,-29 5.5,0 8,22 0.25,0 7.75,-22 5.5,0"
         style="font-size:64px;font-family:'黑体';-inkscape-font-specification:'黑体'"
         id="path3021" />
      <path
         d="m 407.70765,926.14886 -5.5,43.25 -5,0 -4.5,-32 -0.5,0 -4.5,32 -5,0 -5.5,-43.25 5.5,0 2.75,27.25 0.5,0 3.75,-27.25 5.5,0 3.75,27.25 0.5,0 2.75,-27.25 5.5,0"
         style="font-size:64px;font-family:'黑体';-inkscape-font-specification:'黑体'"
         id="path3023" />
      <path
         d="m 437.45765,959.39886 c -0.33336,3.00001 -1.66669,5.41668 -4,7.25 -2.33335,1.83334 -5.08335,2.75001 -8.25,2.75 -4.00001,10e-6 -7.33334,-1.24999 -10,-3.75 -2.5,-2.66665 -3.75,-6.24998 -3.75,-10.75 0,-4.49998 1.25,-7.99997 3.75,-10.5 2.66666,-2.66663 5.99999,-3.99997 10,-4 3.49998,3e-5 6.33331,1.1667 8.5,3.5 2.33331,2.1667 3.49997,5.83336 3.5,11 l -20.25,0 c 0,3.66668 0.74999,6.25001 2.25,7.75 1.66666,1.50001 3.66666,2.25001 6,2.25 1.83332,10e-6 3.33332,-0.41666 4.5,-1.25 1.16665,-0.99999 1.91665,-2.41665 2.25,-4.25 l 5.5,0 m -6,-8.5 c -0.33335,-2.33331 -1.08335,-3.91664 -2.25,-4.75 -1.16668,-0.99997 -2.66668,-1.49997 -4.5,-1.5 -1.66668,3e-5 -3.16668,0.50003 -4.5,1.5 -1.33334,0.83336 -2.33334,2.41669 -3,4.75 l 14.25,0"
         style="font-size:64px;font-family:'黑体';-inkscape-font-specification:'黑体'"
         id="path3025" />
      <path
         d="m 458.95765,932.89886 -5,0 0,-6.5 5,0 0,6.5 m 0,36 -5,0 0,-28 5,0 0,28"
         style="font-size:64px;font-family:'黑体';-inkscape-font-specification:'黑体'"
         id="path3027" />
      <path
         d="m 501.20765,954.89886 c -3e-5,4.83335 -1.16669,8.50001 -3.5,11 -2.33335,2.33334 -5.16668,3.50001 -8.5,3.5 -1.83334,10e-6 -3.41668,-0.33333 -4.75,-1 -1.33334,-0.66666 -2.50001,-1.74999 -3.5,-3.25 l 0,3.75 -5,0 0,-42.75 5,0 0,18.5 c 0.99999,-1.49997 2.16666,-2.5833 3.5,-3.25 1.33332,-0.8333 2.91666,-1.24997 4.75,-1.25 3.33332,3e-5 6.16665,1.25003 8.5,3.75 2.33331,2.50003 3.49997,6.16669 3.5,11 m -5.5,0 c -2e-5,-3.16664 -0.66669,-5.66664 -2,-7.5 -1.16668,-1.8333 -3.00001,-2.74997 -5.5,-2.75 -2.00001,3e-5 -3.75001,0.9167 -5.25,2.75 -1.33334,1.83336 -2,4.33336 -2,7.5 0,3.16668 0.66666,5.66668 2,7.5 1.49999,1.66668 3.24999,2.50001 5.25,2.5 2.49999,10e-6 4.33332,-0.83332 5.5,-2.5 1.33331,-1.83332 1.99998,-4.33332 2,-7.5"
         style="font-size:64px;font-family:'黑体';-inkscape-font-specification:'黑体'"
         id="path3029" />
      <path
         d="m 534.20765,954.89886 c -3e-5,4.33335 -1.33336,7.83335 -4,10.5 -2.66669,2.66667 -5.83335,4.00001 -9.5,4 -3.66668,10e-6 -6.83334,-1.33333 -9.5,-4 -2.66667,-2.66665 -4,-6.16665 -4,-10.5 0,-4.33331 1.33333,-7.83331 4,-10.5 2.66666,-2.66663 5.83332,-3.99997 9.5,-4 3.66665,3e-5 6.83331,1.33337 9.5,4 2.66664,2.66669 3.99997,6.16669 4,10.5 m -5.5,0 c -2e-5,-3.33331 -0.83335,-5.83331 -2.5,-7.5 -1.66668,-1.66664 -3.50001,-2.49997 -5.5,-2.5 -2.00001,3e-5 -3.83334,0.83336 -5.5,2.5 -1.66667,1.66669 -2.5,4.16669 -2.5,7.5 0,3.33335 0.83333,5.83335 2.5,7.5 1.66666,1.66668 3.49999,2.50001 5.5,2.5 1.99999,10e-6 3.83332,-0.83332 5.5,-2.5 1.66665,-1.66665 2.49998,-4.16665 2.5,-7.5"
         style="font-size:64px;font-family:'黑体';-inkscape-font-specification:'黑体'"
         id="path3031" />
      <path
         d="m 564.20765,936.39886 c -2e-5,2.1667 -0.50002,4.1667 -1.5,6 -1.00002,1.83336 -2.33335,3.4167 -4,4.75 -1.66668,1.33336 -2.83335,2.66669 -3.5,4 -0.66668,1.33336 -1.00001,2.25002 -1,2.75 l 0,1.75 -4.5,0 0,-2.5 c -10e-6,-1.49998 0.33332,-2.91664 1,-4.25 0.83332,-1.49997 2.16665,-3.0833 4,-4.75 1.33332,-1.16663 2.24998,-2.3333 2.75,-3.5 0.49998,-1.3333 0.74998,-2.5833 0.75,-3.75 -2e-5,-2.16663 -0.50002,-3.74996 -1.5,-4.75 -1.00002,-1.16662 -2.41668,-1.74996 -4.25,-1.75 -1.83334,4e-5 -3.41668,0.75004 -4.75,2.25 -1.16667,1.33337 -1.75001,3.58337 -1.75,6.75 l -5.75,0 c 0.16667,-4.66663 1.41667,-8.08329 3.75,-10.25 2.33333,-2.33329 5.16666,-3.49995 8.5,-3.5 3.66665,5e-5 6.49998,1.00005 8.5,3 2.16664,2.00004 3.24998,4.58337 3.25,7.75 m -9.5,32.5 -5.5,0 0,-6 5.5,0 0,6"
         style="font-size:64px;font-family:'黑体';-inkscape-font-specification:'黑体'"
         id="path3033" />
      <path
         d="m 596.20765,936.39886 c -2e-5,2.1667 -0.50002,4.1667 -1.5,6 -1.00002,1.83336 -2.33335,3.4167 -4,4.75 -1.66668,1.33336 -2.83335,2.66669 -3.5,4 -0.66668,1.33336 -1.00001,2.25002 -1,2.75 l 0,1.75 -4.5,0 0,-2.5 c -10e-6,-1.49998 0.33332,-2.91664 1,-4.25 0.83332,-1.49997 2.16665,-3.0833 4,-4.75 1.33332,-1.16663 2.24998,-2.3333 2.75,-3.5 0.49998,-1.3333 0.74998,-2.5833 0.75,-3.75 -2e-5,-2.16663 -0.50002,-3.74996 -1.5,-4.75 -1.00002,-1.16662 -2.41668,-1.74996 -4.25,-1.75 -1.83334,4e-5 -3.41668,0.75004 -4.75,2.25 -1.16667,1.33337 -1.75001,3.58337 -1.75,6.75 l -5.75,0 c 0.16667,-4.66663 1.41667,-8.08329 3.75,-10.25 2.33333,-2.33329 5.16666,-3.49995 8.5,-3.5 3.66665,5e-5 6.49998,1.00005 8.5,3 2.16664,2.00004 3.24998,4.58337 3.25,7.75 m -9.5,32.5 -5.5,0 0,-6 5.5,0 0,6"
         style="font-size:64px;font-family:'黑体';-inkscape-font-specification:'黑体'"
         id="path3035" />
      <path
         d="m 628.20765,936.39886 c -2e-5,2.1667 -0.50002,4.1667 -1.5,6 -1.00002,1.83336 -2.33335,3.4167 -4,4.75 -1.66668,1.33336 -2.83335,2.66669 -3.5,4 -0.66668,1.33336 -1.00001,2.25002 -1,2.75 l 0,1.75 -4.5,0 0,-2.5 c -10e-6,-1.49998 0.33332,-2.91664 1,-4.25 0.83332,-1.49997 2.16665,-3.0833 4,-4.75 1.33332,-1.16663 2.24998,-2.3333 2.75,-3.5 0.49998,-1.3333 0.74998,-2.5833 0.75,-3.75 -2e-5,-2.16663 -0.50002,-3.74996 -1.5,-4.75 -1.00002,-1.16662 -2.41668,-1.74996 -4.25,-1.75 -1.83334,4e-5 -3.41668,0.75004 -4.75,2.25 -1.16667,1.33337 -1.75001,3.58337 -1.75,6.75 l -5.75,0 c 0.16667,-4.66663 1.41667,-8.08329 3.75,-10.25 2.33333,-2.33329 5.16666,-3.49995 8.5,-3.5 3.66665,5e-5 6.49998,1.00005 8.5,3 2.16664,2.00004 3.24998,4.58337 3.25,7.75 m -9.5,32.5 -5.5,0 0,-6 5.5,0 0,6"
         style="font-size:64px;font-family:'黑体';-inkscape-font-specification:'黑体'"
         id="path3037" />
    </g>
  </g>
</svg>
