<?xml version="1.0" encoding="UTF-8" standalone="no"?>
<svg
   xmlns:dc="http://purl.org/dc/elements/1.1/"
   xmlns:cc="http://creativecommons.org/ns#"
   xmlns:rdf="http://www.w3.org/1999/02/22-rdf-syntax-ns#"
   xmlns:svg="http://www.w3.org/2000/svg"
   xmlns="http://www.w3.org/2000/svg"
   xmlns:sodipodi="http://sodipodi.sourceforge.net/DTD/sodipodi-0.dtd"
   xmlns:inkscape="http://www.inkscape.org/namespaces/inkscape"
   width="80pt"
   height="80pt"
   viewBox="0 0 80 80"
   version="1.1"
   id="svg2"
   inkscape:version="0.48.3.1 r9886"
   sodipodi:docname="WeCase.svg"
   inkscape:export-filename="/home/cth451/文档/git/WeCase/res/img/WeCase.png"
   inkscape:export-xdpi="72"
   inkscape:export-ydpi="72">
  <metadata
     id="metadata16">
    <rdf:RDF>
      <cc:Work
         rdf:about="">
        <dc:format>image/svg+xml</dc:format>
        <dc:type
           rdf:resource="http://purl.org/dc/dcmitype/StillImage" />
        <dc:title></dc:title>
      </cc:Work>
    </rdf:RDF>
  </metadata>
  <defs
     id="defs14" />
  <sodipodi:namedview
     pagecolor="#ffffff"
     bordercolor="#666666"
     borderopacity="1"
     objecttolerance="10"
     gridtolerance="10"
     guidetolerance="10"
     inkscape:pageopacity="0"
     inkscape:pageshadow="2"
     inkscape:window-width="640"
     inkscape:window-height="480"
     id="namedview12"
     showgrid="false"
     inkscape:zoom="2.36"
     inkscape:cx="52.461049"
     inkscape:cy="52.230063"
     inkscape:window-x="74"
     inkscape:window-y="59"
     inkscape:window-maximized="0"
     inkscape:current-layer="svg2" />
  <path
     fill="#d6010f"
     d=" M 6.23 1.24 C 11.42 0.21 16.75 0.85 22.01 0.77 C 38.01 0.58 54.01 0.75 70.01 0.76 C 73.44 0.62 77.26 2.08 78.52 5.53 C 79.87 9.87 79.21 14.50 79.27 18.97 C 79.34 34.67 79.23 50.36 79.33 66.06 C 79.17 69.72 79.78 74.07 76.92 76.90 C 74.37 79.62 70.36 79.08 66.99 79.26 C 47.99 79.28 29.00 79.25 10.00 79.34 C 7.31 79.28 4.36 78.59 2.60 76.38 C 0.48 73.75 0.76 70.13 0.64 66.95 C 0.85 47.98 0.53 29.01 0.73 10.05 C 0.58 6.36 2.36 2.20 6.23 1.24 Z"
     id="path6" />
  <path
     fill="#fefefe"
     d=" M 49.87 17.97 C 49.76 16.42 51.10 14.76 52.75 15.12 C 53.89 16.05 54.52 17.44 54.27 18.92 C 54.10 23.30 53.45 27.64 53.08 32.01 C 52.44 41.77 49.77 51.29 46.18 60.35 C 45.34 62.83 42.44 64.18 39.98 63.30 C 37.66 62.69 36.47 60.32 35.90 58.18 C 34.77 53.75 33.78 49.28 32.69 44.84 C 30.18 49.07 28.36 53.66 25.88 57.89 C 24.46 60.26 21.87 62.63 18.89 61.86 C 15.98 61.09 14.20 58.30 13.15 55.67 C 10.61 48.77 10.46 41.31 10.38 34.04 C 10.55 32.46 9.97 30.00 12.04 29.43 C 13.18 29.90 14.43 30.76 14.35 32.15 C 15.05 37.70 14.85 43.38 16.27 48.83 C 17.07 51.85 17.41 55.31 20.04 57.40 C 21.11 56.28 22.17 55.14 22.91 53.78 C 27.16 46.29 30.33 38.25 33.32 30.19 C 34.55 30.12 35.79 30.09 37.02 30.09 C 37.05 39.42 37.56 48.82 40.53 57.73 C 40.88 57.85 41.56 58.09 41.91 58.21 C 47.99 45.76 49.44 31.66 49.87 17.97 Z"
     id="path8" />
  <path
     fill="#fefefe"
     d=" M 54.44 58.60 C 50.07 51.14 57.18 40.07 65.88 41.37 C 67.87 41.66 70.75 43.48 69.66 45.77 C 68.26 47.45 66.50 45.17 65.01 44.81 C 59.12 44.24 54.10 52.45 57.84 57.20 C 61.57 59.99 66.09 56.83 70.17 57.87 C 70.08 61.03 66.56 61.88 64.01 62.15 C 60.53 62.63 56.39 61.82 54.44 58.60 Z"
     id="path10" />
</svg>
